<mxfile host="Electron" modified="2024-09-02T05:35:28.374Z" agent="Mozilla/5.0 (Windows NT 10.0; Win64; x64) AppleWebKit/537.36 (KHTML, like Gecko) draw.io/21.8.2 Chrome/114.0.5735.289 Electron/25.8.1 Safari/537.36" etag="1lH0xdrypw7_rPcGUxEh" version="21.8.2" type="device" pages="2">
  <diagram name="Page-1" id="Sou4TZmcMqiSRIvOzu2-">
    <mxGraphModel dx="1668" dy="965" grid="1" gridSize="10" guides="1" tooltips="1" connect="1" arrows="1" fold="1" page="1" pageScale="1" pageWidth="1654" pageHeight="1169" math="0" shadow="0">
      <root>
        <mxCell id="0" />
        <mxCell id="1" parent="0" />
        <mxCell id="TC37cvvFxbbLBeFXpX5r-1" value="AWS Cloud" style="points=[[0,0],[0.25,0],[0.5,0],[0.75,0],[1,0],[1,0.25],[1,0.5],[1,0.75],[1,1],[0.75,1],[0.5,1],[0.25,1],[0,1],[0,0.75],[0,0.5],[0,0.25]];outlineConnect=0;gradientColor=none;html=1;whiteSpace=wrap;fontSize=12;fontStyle=0;container=1;pointerEvents=0;collapsible=0;recursiveResize=0;shape=mxgraph.aws4.group;grIcon=mxgraph.aws4.group_aws_cloud_alt;strokeColor=#232F3E;fillColor=none;verticalAlign=top;align=left;spacingLeft=30;fontColor=#232F3E;dashed=0;" parent="1" vertex="1">
          <mxGeometry x="419.65" y="280" width="1060" height="660" as="geometry" />
        </mxCell>
        <mxCell id="TC37cvvFxbbLBeFXpX5r-5" value="Region" style="points=[[0,0],[0.25,0],[0.5,0],[0.75,0],[1,0],[1,0.25],[1,0.5],[1,0.75],[1,1],[0.75,1],[0.5,1],[0.25,1],[0,1],[0,0.75],[0,0.5],[0,0.25]];outlineConnect=0;gradientColor=none;html=1;whiteSpace=wrap;fontSize=12;fontStyle=0;container=1;pointerEvents=0;collapsible=0;recursiveResize=0;shape=mxgraph.aws4.group;grIcon=mxgraph.aws4.group_region;strokeColor=#147EBA;fillColor=none;verticalAlign=top;align=left;spacingLeft=30;fontColor=#147EBA;dashed=1;" parent="TC37cvvFxbbLBeFXpX5r-1" vertex="1">
          <mxGeometry x="20" y="27" width="1020" height="610" as="geometry" />
        </mxCell>
        <mxCell id="TC37cvvFxbbLBeFXpX5r-2" value="&lt;font color=&quot;#000000&quot;&gt;VPC - PC1 - 10.10.0.0/16&lt;/font&gt;" style="points=[[0,0],[0.25,0],[0.5,0],[0.75,0],[1,0],[1,0.25],[1,0.5],[1,0.75],[1,1],[0.75,1],[0.5,1],[0.25,1],[0,1],[0,0.75],[0,0.5],[0,0.25]];outlineConnect=0;gradientColor=none;html=1;whiteSpace=wrap;fontSize=12;fontStyle=0;container=1;pointerEvents=0;collapsible=0;recursiveResize=0;shape=mxgraph.aws4.group;grIcon=mxgraph.aws4.group_vpc;strokeColor=#248814;fillColor=none;verticalAlign=top;align=left;spacingLeft=30;fontColor=#AAB7B8;dashed=0;" parent="TC37cvvFxbbLBeFXpX5r-5" vertex="1">
          <mxGeometry x="50" y="25" width="940" height="560" as="geometry" />
        </mxCell>
        <mxCell id="TC37cvvFxbbLBeFXpX5r-3" value="Availability Zone" style="fillColor=none;strokeColor=#147EBA;dashed=1;verticalAlign=top;fontStyle=0;fontColor=#147EBA;whiteSpace=wrap;html=1;" parent="TC37cvvFxbbLBeFXpX5r-2" vertex="1">
          <mxGeometry x="145" y="38" width="620" height="160" as="geometry" />
        </mxCell>
        <mxCell id="TC37cvvFxbbLBeFXpX5r-4" value="Availability Zone" style="fillColor=none;strokeColor=#147EBA;dashed=1;verticalAlign=top;fontStyle=0;fontColor=#147EBA;whiteSpace=wrap;html=1;" parent="TC37cvvFxbbLBeFXpX5r-2" vertex="1">
          <mxGeometry x="145" y="348" width="620" height="160" as="geometry" />
        </mxCell>
        <mxCell id="TC37cvvFxbbLBeFXpX5r-8" value="Internet Gateway" style="sketch=0;outlineConnect=0;fontColor=#232F3E;gradientColor=none;fillColor=#8C4FFF;strokeColor=none;dashed=0;verticalLabelPosition=bottom;verticalAlign=top;align=center;html=1;fontSize=12;fontStyle=0;aspect=fixed;pointerEvents=1;shape=mxgraph.aws4.internet_gateway;" parent="TC37cvvFxbbLBeFXpX5r-2" vertex="1">
          <mxGeometry x="42" y="241" width="78" height="78" as="geometry" />
        </mxCell>
        <mxCell id="TC37cvvFxbbLBeFXpX5r-10" value="Public subnet" style="points=[[0,0],[0.25,0],[0.5,0],[0.75,0],[1,0],[1,0.25],[1,0.5],[1,0.75],[1,1],[0.75,1],[0.5,1],[0.25,1],[0,1],[0,0.75],[0,0.5],[0,0.25]];outlineConnect=0;gradientColor=none;html=1;whiteSpace=wrap;fontSize=12;fontStyle=0;container=1;pointerEvents=0;collapsible=0;recursiveResize=0;shape=mxgraph.aws4.group;grIcon=mxgraph.aws4.group_security_group;grStroke=0;strokeColor=#248814;fillColor=#E9F3E6;verticalAlign=top;align=left;spacingLeft=30;fontColor=#248814;dashed=0;" parent="TC37cvvFxbbLBeFXpX5r-2" vertex="1">
          <mxGeometry x="210" y="53" width="130" height="130" as="geometry" />
        </mxCell>
        <mxCell id="TC37cvvFxbbLBeFXpX5r-11" value="Private subnet" style="points=[[0,0],[0.25,0],[0.5,0],[0.75,0],[1,0],[1,0.25],[1,0.5],[1,0.75],[1,1],[0.75,1],[0.5,1],[0.25,1],[0,1],[0,0.75],[0,0.5],[0,0.25]];outlineConnect=0;gradientColor=none;html=1;whiteSpace=wrap;fontSize=12;fontStyle=0;container=1;pointerEvents=0;collapsible=0;recursiveResize=0;shape=mxgraph.aws4.group;grIcon=mxgraph.aws4.group_security_group;grStroke=0;strokeColor=#147EBA;fillColor=#E6F2F8;verticalAlign=top;align=left;spacingLeft=30;fontColor=#147EBA;dashed=0;" parent="TC37cvvFxbbLBeFXpX5r-2" vertex="1">
          <mxGeometry x="590" y="53" width="130" height="130" as="geometry" />
        </mxCell>
        <mxCell id="TC37cvvFxbbLBeFXpX5r-12" value="Public subnet" style="points=[[0,0],[0.25,0],[0.5,0],[0.75,0],[1,0],[1,0.25],[1,0.5],[1,0.75],[1,1],[0.75,1],[0.5,1],[0.25,1],[0,1],[0,0.75],[0,0.5],[0,0.25]];outlineConnect=0;gradientColor=none;html=1;whiteSpace=wrap;fontSize=12;fontStyle=0;container=1;pointerEvents=0;collapsible=0;recursiveResize=0;shape=mxgraph.aws4.group;grIcon=mxgraph.aws4.group_security_group;grStroke=0;strokeColor=#248814;fillColor=#E9F3E6;verticalAlign=top;align=left;spacingLeft=30;fontColor=#248814;dashed=0;" parent="TC37cvvFxbbLBeFXpX5r-2" vertex="1">
          <mxGeometry x="210" y="365" width="130" height="130" as="geometry" />
        </mxCell>
        <mxCell id="7DujUE9EhOmKK1CnmsFV-1" value="NAT Gateway" style="sketch=0;outlineConnect=0;fontColor=#232F3E;gradientColor=none;fillColor=#8C4FFF;strokeColor=none;dashed=0;verticalLabelPosition=bottom;verticalAlign=top;align=center;html=1;fontSize=12;fontStyle=0;aspect=fixed;pointerEvents=1;shape=mxgraph.aws4.nat_gateway;" parent="TC37cvvFxbbLBeFXpX5r-12" vertex="1">
          <mxGeometry x="26" y="32" width="78" height="78" as="geometry" />
        </mxCell>
        <mxCell id="TC37cvvFxbbLBeFXpX5r-13" value="Private subnet" style="points=[[0,0],[0.25,0],[0.5,0],[0.75,0],[1,0],[1,0.25],[1,0.5],[1,0.75],[1,1],[0.75,1],[0.5,1],[0.25,1],[0,1],[0,0.75],[0,0.5],[0,0.25]];outlineConnect=0;gradientColor=none;html=1;whiteSpace=wrap;fontSize=12;fontStyle=0;container=1;pointerEvents=0;collapsible=0;recursiveResize=0;shape=mxgraph.aws4.group;grIcon=mxgraph.aws4.group_security_group;grStroke=0;strokeColor=#147EBA;fillColor=#E6F2F8;verticalAlign=top;align=left;spacingLeft=30;fontColor=#147EBA;dashed=0;" parent="TC37cvvFxbbLBeFXpX5r-2" vertex="1">
          <mxGeometry x="590" y="365" width="130" height="130" as="geometry" />
        </mxCell>
        <mxCell id="7DujUE9EhOmKK1CnmsFV-4" value="Private EC2 Instance" style="sketch=0;points=[[0,0,0],[0.25,0,0],[0.5,0,0],[0.75,0,0],[1,0,0],[0,1,0],[0.25,1,0],[0.5,1,0],[0.75,1,0],[1,1,0],[0,0.25,0],[0,0.5,0],[0,0.75,0],[1,0.25,0],[1,0.5,0],[1,0.75,0]];outlineConnect=0;fontColor=#232F3E;fillColor=#ED7100;strokeColor=#ffffff;dashed=0;verticalLabelPosition=bottom;verticalAlign=top;align=center;html=1;fontSize=12;fontStyle=0;aspect=fixed;shape=mxgraph.aws4.resourceIcon;resIcon=mxgraph.aws4.ec2;" parent="TC37cvvFxbbLBeFXpX5r-13" vertex="1">
          <mxGeometry x="26" y="33" width="78" height="78" as="geometry" />
        </mxCell>
        <mxCell id="7DujUE9EhOmKK1CnmsFV-3" value="Public EC2 Instance" style="sketch=0;points=[[0,0,0],[0.25,0,0],[0.5,0,0],[0.75,0,0],[1,0,0],[0,1,0],[0.25,1,0],[0.5,1,0],[0.75,1,0],[1,1,0],[0,0.25,0],[0,0.5,0],[0,0.75,0],[1,0.25,0],[1,0.5,0],[1,0.75,0]];outlineConnect=0;fontColor=#232F3E;fillColor=#ED7100;strokeColor=#ffffff;dashed=0;verticalLabelPosition=bottom;verticalAlign=top;align=center;html=1;fontSize=12;fontStyle=0;aspect=fixed;shape=mxgraph.aws4.resourceIcon;resIcon=mxgraph.aws4.ec2;" parent="TC37cvvFxbbLBeFXpX5r-2" vertex="1">
          <mxGeometry x="236" y="83" width="78" height="78" as="geometry" />
        </mxCell>
        <mxCell id="7DujUE9EhOmKK1CnmsFV-7" style="edgeStyle=orthogonalEdgeStyle;rounded=0;orthogonalLoop=1;jettySize=auto;html=1;entryX=0;entryY=0.5;entryDx=0;entryDy=0;entryPerimeter=0;" parent="TC37cvvFxbbLBeFXpX5r-2" source="TC37cvvFxbbLBeFXpX5r-8" target="7DujUE9EhOmKK1CnmsFV-3" edge="1">
          <mxGeometry relative="1" as="geometry">
            <Array as="points">
              <mxPoint x="80" y="122" />
            </Array>
          </mxGeometry>
        </mxCell>
        <mxCell id="7DujUE9EhOmKK1CnmsFV-8" style="edgeStyle=orthogonalEdgeStyle;rounded=0;orthogonalLoop=1;jettySize=auto;html=1;" parent="TC37cvvFxbbLBeFXpX5r-2" source="TC37cvvFxbbLBeFXpX5r-8" target="7DujUE9EhOmKK1CnmsFV-1" edge="1">
          <mxGeometry relative="1" as="geometry">
            <Array as="points">
              <mxPoint x="79" y="438" />
            </Array>
          </mxGeometry>
        </mxCell>
        <mxCell id="7DujUE9EhOmKK1CnmsFV-9" style="edgeStyle=orthogonalEdgeStyle;rounded=0;orthogonalLoop=1;jettySize=auto;html=1;entryX=0;entryY=0.5;entryDx=0;entryDy=0;entryPerimeter=0;" parent="TC37cvvFxbbLBeFXpX5r-2" source="7DujUE9EhOmKK1CnmsFV-1" target="7DujUE9EhOmKK1CnmsFV-4" edge="1">
          <mxGeometry relative="1" as="geometry" />
        </mxCell>
        <mxCell id="7DujUE9EhOmKK1CnmsFV-17" value="Associate" style="edgeStyle=orthogonalEdgeStyle;rounded=0;orthogonalLoop=1;jettySize=auto;html=1;endArrow=none;endFill=0;" parent="TC37cvvFxbbLBeFXpX5r-2" source="7DujUE9EhOmKK1CnmsFV-15" target="TC37cvvFxbbLBeFXpX5r-11" edge="1">
          <mxGeometry relative="1" as="geometry">
            <Array as="points">
              <mxPoint x="858" y="118" />
            </Array>
          </mxGeometry>
        </mxCell>
        <mxCell id="7DujUE9EhOmKK1CnmsFV-15" value="" style="outlineConnect=0;dashed=0;verticalLabelPosition=bottom;verticalAlign=top;align=center;html=1;shape=mxgraph.aws3.route_table;fillColor=#F58536;gradientColor=none;" parent="TC37cvvFxbbLBeFXpX5r-2" vertex="1">
          <mxGeometry x="820" y="228" width="75" height="69" as="geometry" />
        </mxCell>
        <mxCell id="7DujUE9EhOmKK1CnmsFV-16" value="Associate" style="edgeStyle=orthogonalEdgeStyle;rounded=0;orthogonalLoop=1;jettySize=auto;html=1;entryX=0.5;entryY=1;entryDx=0;entryDy=0;entryPerimeter=0;endArrow=none;endFill=0;" parent="TC37cvvFxbbLBeFXpX5r-2" source="TC37cvvFxbbLBeFXpX5r-13" target="7DujUE9EhOmKK1CnmsFV-15" edge="1">
          <mxGeometry relative="1" as="geometry" />
        </mxCell>
        <mxCell id="7DujUE9EhOmKK1CnmsFV-20" style="edgeStyle=orthogonalEdgeStyle;rounded=0;orthogonalLoop=1;jettySize=auto;html=1;endArrow=none;endFill=0;" parent="TC37cvvFxbbLBeFXpX5r-2" source="7DujUE9EhOmKK1CnmsFV-18" target="TC37cvvFxbbLBeFXpX5r-10" edge="1">
          <mxGeometry relative="1" as="geometry" />
        </mxCell>
        <mxCell id="7DujUE9EhOmKK1CnmsFV-18" value="" style="outlineConnect=0;dashed=0;verticalLabelPosition=bottom;verticalAlign=top;align=center;html=1;shape=mxgraph.aws3.route_table;fillColor=#F58536;gradientColor=none;" parent="TC37cvvFxbbLBeFXpX5r-2" vertex="1">
          <mxGeometry x="337.35" y="241" width="75" height="69" as="geometry" />
        </mxCell>
        <mxCell id="7DujUE9EhOmKK1CnmsFV-19" style="edgeStyle=orthogonalEdgeStyle;rounded=0;orthogonalLoop=1;jettySize=auto;html=1;entryX=0.5;entryY=1;entryDx=0;entryDy=0;entryPerimeter=0;endArrow=none;endFill=0;" parent="TC37cvvFxbbLBeFXpX5r-2" source="TC37cvvFxbbLBeFXpX5r-12" target="7DujUE9EhOmKK1CnmsFV-18" edge="1">
          <mxGeometry relative="1" as="geometry" />
        </mxCell>
        <mxCell id="TC37cvvFxbbLBeFXpX5r-9" style="edgeStyle=orthogonalEdgeStyle;rounded=0;orthogonalLoop=1;jettySize=auto;html=1;" parent="1" source="TC37cvvFxbbLBeFXpX5r-7" target="TC37cvvFxbbLBeFXpX5r-8" edge="1">
          <mxGeometry relative="1" as="geometry" />
        </mxCell>
        <mxCell id="TC37cvvFxbbLBeFXpX5r-7" value="" style="image;aspect=fixed;perimeter=ellipsePerimeter;html=1;align=center;shadow=0;dashed=0;spacingTop=3;image=img/lib/active_directory/internet_cloud.svg;direction=south;rotation=-90;" parent="1" vertex="1">
          <mxGeometry x="210" y="556" width="69.3" height="110" as="geometry" />
        </mxCell>
      </root>
    </mxGraphModel>
  </diagram>
  <diagram id="ltXytLsRTEtjs5P1zlHc" name="Page-2">
    <mxGraphModel dx="1418" dy="820" grid="1" gridSize="10" guides="1" tooltips="1" connect="1" arrows="1" fold="1" page="1" pageScale="1" pageWidth="1654" pageHeight="1169" math="0" shadow="0">
      <root>
        <mxCell id="0" />
        <mxCell id="1" parent="0" />
        <mxCell id="DAj-nFAntdS_QmzrlqL4-1" value="AWS Cloud" style="points=[[0,0],[0.25,0],[0.5,0],[0.75,0],[1,0],[1,0.25],[1,0.5],[1,0.75],[1,1],[0.75,1],[0.5,1],[0.25,1],[0,1],[0,0.75],[0,0.5],[0,0.25]];outlineConnect=0;gradientColor=none;html=1;whiteSpace=wrap;fontSize=12;fontStyle=0;container=1;pointerEvents=0;collapsible=0;recursiveResize=0;shape=mxgraph.aws4.group;grIcon=mxgraph.aws4.group_aws_cloud_alt;strokeColor=#232F3E;fillColor=none;verticalAlign=top;align=left;spacingLeft=30;fontColor=#232F3E;dashed=0;" vertex="1" parent="1">
          <mxGeometry x="200" y="150" width="1150" height="760" as="geometry" />
        </mxCell>
        <mxCell id="V0fyNV9CxH96ygOuDA61-2" value="Region" style="points=[[0,0],[0.25,0],[0.5,0],[0.75,0],[1,0],[1,0.25],[1,0.5],[1,0.75],[1,1],[0.75,1],[0.5,1],[0.25,1],[0,1],[0,0.75],[0,0.5],[0,0.25]];outlineConnect=0;gradientColor=none;html=1;whiteSpace=wrap;fontSize=12;fontStyle=0;container=1;pointerEvents=0;collapsible=0;recursiveResize=0;shape=mxgraph.aws4.group;grIcon=mxgraph.aws4.group_region;strokeColor=#147EBA;fillColor=none;verticalAlign=top;align=left;spacingLeft=30;fontColor=#147EBA;dashed=1;" vertex="1" parent="DAj-nFAntdS_QmzrlqL4-1">
          <mxGeometry x="100" y="50" width="950" height="650" as="geometry" />
        </mxCell>
        <mxCell id="DAj-nFAntdS_QmzrlqL4-6" value="EC2 Instance" style="sketch=0;points=[[0,0,0],[0.25,0,0],[0.5,0,0],[0.75,0,0],[1,0,0],[0,1,0],[0.25,1,0],[0.5,1,0],[0.75,1,0],[1,1,0],[0,0.25,0],[0,0.5,0],[0,0.75,0],[1,0.25,0],[1,0.5,0],[1,0.75,0]];outlineConnect=0;fontColor=#232F3E;fillColor=#ED7100;strokeColor=#ffffff;dashed=0;verticalLabelPosition=bottom;verticalAlign=top;align=center;html=1;fontSize=12;fontStyle=0;aspect=fixed;shape=mxgraph.aws4.resourceIcon;resIcon=mxgraph.aws4.ec2;" vertex="1" parent="V0fyNV9CxH96ygOuDA61-2">
          <mxGeometry x="150" y="90" width="105" height="105" as="geometry" />
        </mxCell>
        <mxCell id="V0fyNV9CxH96ygOuDA61-3" value="VPC" style="points=[[0,0],[0.25,0],[0.5,0],[0.75,0],[1,0],[1,0.25],[1,0.5],[1,0.75],[1,1],[0.75,1],[0.5,1],[0.25,1],[0,1],[0,0.75],[0,0.5],[0,0.25]];outlineConnect=0;gradientColor=none;html=1;whiteSpace=wrap;fontSize=12;fontStyle=0;container=1;pointerEvents=0;collapsible=0;recursiveResize=0;shape=mxgraph.aws4.group;grIcon=mxgraph.aws4.group_vpc;strokeColor=#248814;fillColor=none;verticalAlign=top;align=left;spacingLeft=30;fontColor=#AAB7B8;dashed=0;" vertex="1" parent="V0fyNV9CxH96ygOuDA61-2">
          <mxGeometry x="112.5" y="440" width="180" height="180" as="geometry" />
        </mxCell>
        <mxCell id="V0fyNV9CxH96ygOuDA61-4" value="EC2 Instance" style="sketch=0;points=[[0,0,0],[0.25,0,0],[0.5,0,0],[0.75,0,0],[1,0,0],[0,1,0],[0.25,1,0],[0.5,1,0],[0.75,1,0],[1,1,0],[0,0.25,0],[0,0.5,0],[0,0.75,0],[1,0.25,0],[1,0.5,0],[1,0.75,0]];outlineConnect=0;fontColor=#232F3E;fillColor=#ED7100;strokeColor=#ffffff;dashed=0;verticalLabelPosition=bottom;verticalAlign=top;align=center;html=1;fontSize=12;fontStyle=0;aspect=fixed;shape=mxgraph.aws4.resourceIcon;resIcon=mxgraph.aws4.ec2;" vertex="1" parent="V0fyNV9CxH96ygOuDA61-2">
          <mxGeometry x="152.5" y="480" width="105" height="105" as="geometry" />
        </mxCell>
        <mxCell id="V0fyNV9CxH96ygOuDA61-5" value="VPC" style="points=[[0,0],[0.25,0],[0.5,0],[0.75,0],[1,0],[1,0.25],[1,0.5],[1,0.75],[1,1],[0.75,1],[0.5,1],[0.25,1],[0,1],[0,0.75],[0,0.5],[0,0.25]];outlineConnect=0;gradientColor=none;html=1;whiteSpace=wrap;fontSize=12;fontStyle=0;container=1;pointerEvents=0;collapsible=0;recursiveResize=0;shape=mxgraph.aws4.group;grIcon=mxgraph.aws4.group_vpc;strokeColor=#248814;fillColor=none;verticalAlign=top;align=left;spacingLeft=30;fontColor=#AAB7B8;dashed=0;" vertex="1" parent="V0fyNV9CxH96ygOuDA61-2">
          <mxGeometry x="680" y="52.5" width="180" height="180" as="geometry" />
        </mxCell>
        <mxCell id="V0fyNV9CxH96ygOuDA61-6" value="EC2 Instance" style="sketch=0;points=[[0,0,0],[0.25,0,0],[0.5,0,0],[0.75,0,0],[1,0,0],[0,1,0],[0.25,1,0],[0.5,1,0],[0.75,1,0],[1,1,0],[0,0.25,0],[0,0.5,0],[0,0.75,0],[1,0.25,0],[1,0.5,0],[1,0.75,0]];outlineConnect=0;fontColor=#232F3E;fillColor=#ED7100;strokeColor=#ffffff;dashed=0;verticalLabelPosition=bottom;verticalAlign=top;align=center;html=1;fontSize=12;fontStyle=0;aspect=fixed;shape=mxgraph.aws4.resourceIcon;resIcon=mxgraph.aws4.ec2;" vertex="1" parent="V0fyNV9CxH96ygOuDA61-2">
          <mxGeometry x="720" y="92.5" width="105" height="105" as="geometry" />
        </mxCell>
        <mxCell id="V0fyNV9CxH96ygOuDA61-7" value="VPC" style="points=[[0,0],[0.25,0],[0.5,0],[0.75,0],[1,0],[1,0.25],[1,0.5],[1,0.75],[1,1],[0.75,1],[0.5,1],[0.25,1],[0,1],[0,0.75],[0,0.5],[0,0.25]];outlineConnect=0;gradientColor=none;html=1;whiteSpace=wrap;fontSize=12;fontStyle=0;container=1;pointerEvents=0;collapsible=0;recursiveResize=0;shape=mxgraph.aws4.group;grIcon=mxgraph.aws4.group_vpc;strokeColor=#248814;fillColor=none;verticalAlign=top;align=left;spacingLeft=30;fontColor=#AAB7B8;dashed=0;" vertex="1" parent="V0fyNV9CxH96ygOuDA61-2">
          <mxGeometry x="682.5" y="440" width="180" height="180" as="geometry" />
        </mxCell>
        <mxCell id="V0fyNV9CxH96ygOuDA61-8" value="EC2 Instance" style="sketch=0;points=[[0,0,0],[0.25,0,0],[0.5,0,0],[0.75,0,0],[1,0,0],[0,1,0],[0.25,1,0],[0.5,1,0],[0.75,1,0],[1,1,0],[0,0.25,0],[0,0.5,0],[0,0.75,0],[1,0.25,0],[1,0.5,0],[1,0.75,0]];outlineConnect=0;fontColor=#232F3E;fillColor=#ED7100;strokeColor=#ffffff;dashed=0;verticalLabelPosition=bottom;verticalAlign=top;align=center;html=1;fontSize=12;fontStyle=0;aspect=fixed;shape=mxgraph.aws4.resourceIcon;resIcon=mxgraph.aws4.ec2;" vertex="1" parent="V0fyNV9CxH96ygOuDA61-2">
          <mxGeometry x="722.5" y="480" width="105" height="105" as="geometry" />
        </mxCell>
        <mxCell id="V0fyNV9CxH96ygOuDA61-1" value="Transit Gateway" style="sketch=0;points=[[0,0,0],[0.25,0,0],[0.5,0,0],[0.75,0,0],[1,0,0],[0,1,0],[0.25,1,0],[0.5,1,0],[0.75,1,0],[1,1,0],[0,0.25,0],[0,0.5,0],[0,0.75,0],[1,0.25,0],[1,0.5,0],[1,0.75,0]];outlineConnect=0;fontColor=#232F3E;fillColor=#8C4FFF;strokeColor=#ffffff;dashed=0;verticalLabelPosition=bottom;verticalAlign=top;align=center;html=1;fontSize=12;fontStyle=0;aspect=fixed;shape=mxgraph.aws4.resourceIcon;resIcon=mxgraph.aws4.transit_gateway;" vertex="1" parent="V0fyNV9CxH96ygOuDA61-2">
          <mxGeometry x="410" y="270" width="130" height="130" as="geometry" />
        </mxCell>
        <mxCell id="DAj-nFAntdS_QmzrlqL4-2" value="VPC" style="points=[[0,0],[0.25,0],[0.5,0],[0.75,0],[1,0],[1,0.25],[1,0.5],[1,0.75],[1,1],[0.75,1],[0.5,1],[0.25,1],[0,1],[0,0.75],[0,0.5],[0,0.25]];outlineConnect=0;gradientColor=none;html=1;whiteSpace=wrap;fontSize=12;fontStyle=0;container=1;pointerEvents=0;collapsible=0;recursiveResize=0;shape=mxgraph.aws4.group;grIcon=mxgraph.aws4.group_vpc;strokeColor=#248814;fillColor=none;verticalAlign=top;align=left;spacingLeft=30;fontColor=#AAB7B8;dashed=0;" vertex="1" parent="V0fyNV9CxH96ygOuDA61-2">
          <mxGeometry x="112.5" y="52.5" width="180" height="180" as="geometry" />
        </mxCell>
        <mxCell id="V0fyNV9CxH96ygOuDA61-10" style="edgeStyle=orthogonalEdgeStyle;rounded=0;orthogonalLoop=1;jettySize=auto;html=1;entryX=1;entryY=0.5;entryDx=0;entryDy=0;entryPerimeter=0;" edge="1" parent="V0fyNV9CxH96ygOuDA61-2" source="V0fyNV9CxH96ygOuDA61-5" target="V0fyNV9CxH96ygOuDA61-1">
          <mxGeometry relative="1" as="geometry" />
        </mxCell>
        <mxCell id="V0fyNV9CxH96ygOuDA61-12" style="edgeStyle=orthogonalEdgeStyle;rounded=0;orthogonalLoop=1;jettySize=auto;html=1;entryX=0;entryY=0.5;entryDx=0;entryDy=0;entryPerimeter=0;" edge="1" parent="V0fyNV9CxH96ygOuDA61-2" source="V0fyNV9CxH96ygOuDA61-3" target="V0fyNV9CxH96ygOuDA61-1">
          <mxGeometry relative="1" as="geometry" />
        </mxCell>
        <mxCell id="V0fyNV9CxH96ygOuDA61-13" style="edgeStyle=orthogonalEdgeStyle;rounded=0;orthogonalLoop=1;jettySize=auto;html=1;entryX=1;entryY=0.5;entryDx=0;entryDy=0;entryPerimeter=0;" edge="1" parent="V0fyNV9CxH96ygOuDA61-2" source="V0fyNV9CxH96ygOuDA61-7" target="V0fyNV9CxH96ygOuDA61-1">
          <mxGeometry relative="1" as="geometry" />
        </mxCell>
        <mxCell id="V0fyNV9CxH96ygOuDA61-14" style="edgeStyle=orthogonalEdgeStyle;rounded=0;orthogonalLoop=1;jettySize=auto;html=1;entryX=0;entryY=0.5;entryDx=0;entryDy=0;entryPerimeter=0;" edge="1" parent="V0fyNV9CxH96ygOuDA61-2" source="DAj-nFAntdS_QmzrlqL4-2" target="V0fyNV9CxH96ygOuDA61-1">
          <mxGeometry relative="1" as="geometry" />
        </mxCell>
      </root>
    </mxGraphModel>
  </diagram>
</mxfile>
